<svg xmlns="http://www.w3.org/2000/svg" width="39" height="39" fill="none" viewBox="0 0 39 39"><path fill="#000" fill-rule="evenodd" d="M0 1.95C0 0.873045 0.873044 0 1.95 0H7.8C8.76246 0 9.58097 0.702217 9.72732 1.65349L10.0729 3.9H37.05C37.6619 3.9 38.2383 4.18722 38.6068 4.67572C38.9752 5.16422 39.0931 5.79736 38.925 6.38571L35.025 20.0357C34.7858 20.8728 34.0206 21.45 33.15 21.45H12.7729L13.3729 25.35H35.1C36.1769 25.35 37.05 26.223 37.05 27.3C37.05 28.377 36.1769 29.25 35.1 29.25H11.7C10.7375 29.25 9.91902 28.5478 9.77267 27.5965L8.60992 20.0386C8.56557 19.884 8.53983 19.7214 8.5353 19.5536L6.50996 6.38886C6.46554 6.23405 6.43978 6.07136 6.43526 5.90336L6.12706 3.9H1.95C0.873044 3.9 0 3.02696 0 1.95ZM10.6729 7.8L12.1729 17.55H31.6791L34.4648 7.8H10.6729ZM7.8 35.1C7.8 32.946 9.54612 31.2 11.7 31.2C13.8539 31.2 15.6 32.946 15.6 35.1C15.6 37.254 13.8539 39 11.7 39C9.54612 39 7.8 37.254 7.8 35.1ZM29.25 35.1C29.25 32.9461 30.996 31.2 33.15 31.2C35.3039 31.2 37.05 32.9461 37.05 35.1C37.05 37.2539 35.3039 39 33.15 39C30.996 39 29.25 37.2539 29.25 35.1Z" clip-rule="evenodd"/></svg>