<svg width="37" height="35" viewBox="0 0 37 35" fill="none" xmlns="http://www.w3.org/2000/svg">
<path fill-rule="evenodd" clip-rule="evenodd" d="M31.1986 12.5798C31.1986 12.674 31.1611 12.7643 31.0942 12.8312C31.0273 12.898 30.9365 12.9359 30.8417 12.9365H27.3128V14.2901H30.8393C31.0392 14.2901 31.1986 14.4508 31.1986 14.6469V15.9367C31.1986 16.0309 31.1611 16.1213 31.0942 16.1881C31.0273 16.255 30.9365 16.2928 30.8417 16.2934H27.3128V17.6471H30.8393C31.0392 17.6471 31.1986 17.8054 31.1986 18.0038V19.2937C31.1986 19.3879 31.1611 19.4783 31.0942 19.5451C31.0273 19.6119 30.9365 19.6498 30.8417 19.6504H25.6542C25.5619 19.6503 25.4732 19.6148 25.4067 19.5512L25.3996 19.5465C25.3996 19.5465 25.3996 19.5417 25.3948 19.5394C25.331 19.4733 25.2952 19.3853 25.2949 19.2937V11.2922C25.2949 11.1954 25.3329 11.108 25.3948 11.0442L25.3996 11.0371L25.4043 11.0347C25.471 10.9697 25.5607 10.9332 25.6542 10.9332H30.8417C31.0392 10.9332 31.1986 11.0938 31.1986 11.2922V12.5798ZM24.0337 19.2937C24.0331 19.3879 23.9949 19.478 23.9276 19.5444C23.8603 19.6108 23.7693 19.648 23.6744 19.648H22.3751C22.343 19.6482 22.311 19.6442 22.28 19.6362C22.2704 19.6362 22.2609 19.6315 22.2538 19.6291L22.2419 19.6244L22.2252 19.6173C22.2196 19.6152 22.214 19.6129 22.2086 19.6102L22.199 19.6032L22.1753 19.5913L22.1705 19.589C22.1352 19.5647 22.1046 19.5343 22.0801 19.4992L18.3822 14.5382V19.2937C18.3819 19.3405 18.3723 19.3869 18.354 19.43C18.3356 19.4732 18.3089 19.5123 18.2753 19.5452C18.2417 19.5781 18.2019 19.6042 18.1582 19.6218C18.1145 19.6394 18.0677 19.6484 18.0205 19.648H16.7236C16.6288 19.648 16.5377 19.6108 16.4704 19.5444C16.4031 19.478 16.365 19.3879 16.3643 19.2937V11.2899C16.3643 11.0938 16.5238 10.9355 16.7213 10.9355H18.0348C18.0524 10.9353 18.0699 10.9368 18.0871 10.9403C18.0943 10.9403 18.099 10.9403 18.1062 10.945H18.1205L18.1419 10.9544L18.1514 10.9592C18.1609 10.9592 18.1657 10.9639 18.1752 10.9662L18.1847 10.9733C18.1911 10.9763 18.1975 10.9795 18.2037 10.9828L18.2156 10.9899C18.2222 10.9935 18.2285 10.9975 18.2347 11.0017L18.2418 11.0088C18.2493 11.0138 18.2564 11.0194 18.2632 11.0253L18.268 11.0324C18.2876 11.0509 18.3052 11.0715 18.3203 11.0938L22.0158 16.0454V11.2899C22.0158 11.0938 22.1776 10.9355 22.3751 10.9355H23.6744C23.8719 10.9355 24.0313 11.0938 24.0313 11.2899V19.2937H24.0337ZM15.1008 19.2937C15.1002 19.3879 15.062 19.478 14.9947 19.5444C14.9274 19.6108 14.8363 19.648 14.7415 19.648H13.4422C13.3477 19.6474 13.2573 19.6099 13.1905 19.5436C13.1237 19.4772 13.0859 19.3875 13.0853 19.2937V11.2899C13.0853 11.0938 13.2447 10.9355 13.4422 10.9355H14.7415C14.939 10.9355 15.1008 11.0938 15.1008 11.2899V19.2937ZM11.974 19.2937C11.9737 19.3405 11.9641 19.3869 11.9458 19.43C11.9274 19.4732 11.9007 19.5123 11.8671 19.5452C11.8335 19.5781 11.7937 19.6042 11.75 19.6218C11.7063 19.6394 11.6595 19.6484 11.6123 19.648H6.42961C6.33681 19.6492 6.24719 19.6145 6.17975 19.5512L6.175 19.5465L6.17024 19.5394C6.1053 19.4738 6.06861 19.3857 6.06791 19.2937V11.2899C6.06791 11.0938 6.22973 10.9355 6.42961 10.9355H7.72648C7.92636 10.9355 8.08817 11.0938 8.08817 11.2899V17.6447H11.6123C11.8122 17.6447 11.974 17.8054 11.974 18.0038V19.2937ZM37 14.9044C37.0024 6.68558 28.7 0 18.5012 0C8.29995 0 0 6.68558 0 14.9067C0 22.2727 6.5819 28.4432 15.472 29.6103C16.074 29.7378 16.895 30.0048 17.102 30.5151C17.2876 30.9805 17.2234 31.7081 17.1615 32.1758L16.8997 33.7492C16.8165 34.2122 16.5261 35.5635 18.5012 34.739C20.4762 33.9122 29.1545 28.5094 33.0356 24.0752C35.715 21.1552 37 18.1928 37 14.9044Z" fill="black"/>
</svg>
